<svg width="1200" height="800" viewBox="0 0 1200 800" xmlns="http://www.w3.org/2000/svg">
  <!-- Background -->
  <rect width="1200" height="800" fill="#f8fafc"/>
  
  <!-- Header -->
  <rect x="0" y="0" width="1200" height="60" fill="#ffffff" stroke="#e2e8f0" stroke-width="1"/>
  
  <!-- Logo and Title -->
  <circle cx="30" cy="30" r="12" fill="#f59e0b"/>
  <rect x="24" y="24" width="12" height="12" rx="2" fill="#ffffff"/>
  <text x="55" y="35" font-family="system-ui, -apple-system, sans-serif" font-size="18" font-weight="600" fill="#1e293b">S3 Finder</text>
  
  <!-- Connection Status -->
  <circle cx="150" cy="30" r="4" fill="#10b981"/>
  <text x="165" y="35" font-family="system-ui, -apple-system, sans-serif" font-size="12" fill="#10b981">Connected to AWS S3</text>
  
  <!-- Search Bar -->
  <rect x="300" y="15" width="400" height="30" rx="15" fill="#f1f5f9" stroke="#e2e8f0" stroke-width="1"/>
  <text x="320" y="33" font-family="system-ui, -apple-system, sans-serif" font-size="14" fill="#64748b">Search local files and S3 objects...</text>
  <circle cx="670" cy="30" r="8" fill="#64748b"/>
  <path d="M665 25 L675 35 M675 25 L665 35" stroke="#ffffff" stroke-width="2" stroke-linecap="round"/>
  
  <!-- Upload Progress -->
  <rect x="750" y="15" width="200" height="30" rx="15" fill="#eff6ff" stroke="#3b82f6" stroke-width="1"/>
  <rect x="755" y="20" width="120" height="20" rx="10" fill="#dbeafe"/>
  <rect x="755" y="20" width="84" height="20" rx="10" fill="#3b82f6"/>
  <text x="885" y="33" font-family="system-ui, -apple-system, sans-serif" font-size="11" fill="#3b82f6">Uploading... 70%</text>
  
  <!-- Theme Toggle Button -->
  <circle cx="1050" cy="30" r="15" fill="#f1f5f9" stroke="#e2e8f0" stroke-width="1"/>
  <circle cx="1050" cy="30" r="6" fill="#fbbf24"/>
  <path d="M1040 20 L1060 40 M1060 20 L1040 40 M1035 30 L1065 30 M1050 15 L1050 45" stroke="#fbbf24" stroke-width="1.5" stroke-linecap="round"/>
  
  <!-- Settings Button -->
  <circle cx="1100" cy="30" r="15" fill="#f1f5f9" stroke="#e2e8f0" stroke-width="1"/>
  <circle cx="1100" cy="30" r="3" fill="#64748b"/>
  <circle cx="1100" cy="30" r="8" fill="none" stroke="#64748b" stroke-width="1.5"/>
  <path d="M1095 25 L1105 35 M1105 25 L1095 35" stroke="#64748b" stroke-width="1" stroke-linecap="round"/>
  
  <!-- Sidebar -->
  <rect x="0" y="60" width="250" height="740" fill="#ffffff" stroke="#e2e8f0" stroke-width="1"/>
  
  <!-- Sidebar Header -->
  <rect x="0" y="60" width="250" height="40" fill="#f8fafc"/>
  <text x="20" y="83" font-family="system-ui, -apple-system, sans-serif" font-size="14" font-weight="600" fill="#374151">Storage Locations</text>
  
  <!-- Sidebar Items -->
  <g transform="translate(20, 110)">
    <!-- Local Storage Section -->
    <text x="0" y="15" font-family="system-ui, -apple-system, sans-serif" font-size="12" font-weight="600" fill="#9ca3af">LOCAL</text>
    
    <!-- Home -->
    <rect x="0" y="25" width="210" height="32" rx="6" fill="#eff6ff"/>
    <rect x="8" y="33" width="16" height="16" rx="2" fill="#3b82f6"/>
    <text x="32" y="45" font-family="system-ui, -apple-system, sans-serif" font-size="14" fill="#1e293b">Home</text>
    
    <!-- Documents -->
    <rect x="8" y="73" width="16" height="16" rx="2" fill="#64748b"/>
    <text x="32" y="85" font-family="system-ui, -apple-system, sans-serif" font-size="14" fill="#64748b">Documents</text>
    
    <!-- S3 Storage Section -->
    <text x="0" y="120" font-family="system-ui, -apple-system, sans-serif" font-size="12" font-weight="600" fill="#9ca3af">AWS S3</text>
    
    <!-- S3 Bucket 1 -->
    <rect x="0" y="130" width="210" height="32" rx="6" fill="#fef3c7"/>
    <circle cx="16" cy="146" r="8" fill="#f59e0b"/>
    <text x="10" y="150" font-family="system-ui, -apple-system, sans-serif" font-size="10" fill="#ffffff">S3</text>
    <text x="32" y="150" font-family="system-ui, -apple-system, sans-serif" font-size="14" fill="#1e293b">my-documents-bucket</text>
    
    <!-- S3 Bucket 2 -->
    <circle cx="16" cy="186" r="8" fill="#f59e0b"/>
    <text x="10" y="190" font-family="system-ui, -apple-system, sans-serif" font-size="10" fill="#ffffff">S3</text>
    <text x="32" y="190" font-family="system-ui, -apple-system, sans-serif" font-size="14" fill="#64748b">backup-storage</text>
    
    <!-- S3 Bucket 3 -->
    <circle cx="16" cy="226" r="8" fill="#f59e0b"/>
    <text x="10" y="230" font-family="system-ui, -apple-system, sans-serif" font-size="10" fill="#ffffff">S3</text>
    <text x="32" y="230" font-family="system-ui, -apple-system, sans-serif" font-size="14" fill="#64748b">media-files</text>
    
    <!-- Add S3 Account -->
    <rect x="8" y="253" width="16" height="16" rx="2" fill="#e5e7eb" stroke="#9ca3af" stroke-width="1" stroke-dasharray="2,2"/>
    <text x="13" y="264" font-family="system-ui, -apple-system, sans-serif" font-size="12" fill="#9ca3af">+</text>
    <text x="32" y="265" font-family="system-ui, -apple-system, sans-serif" font-size="14" fill="#9ca3af">Add S3 Account</text>
  </g>
  
  <!-- Main Content Area -->
  <rect x="250" y="60" width="950" height="740" fill="#ffffff"/>
  
  <!-- Breadcrumb -->
  <rect x="250" y="60" width="950" height="40" fill="#f8fafc" stroke="#e2e8f0" stroke-width="1"/>
  <circle cx="270" cy="80" r="6" fill="#3b82f6"/>
  <text x="285" y="83" font-family="system-ui, -apple-system, sans-serif" font-size="14" fill="#64748b">Local</text>
  <text x="320" y="83" font-family="system-ui, -apple-system, sans-serif" font-size="14" fill="#64748b">></text>
  <text x="335" y="83" font-family="system-ui, -apple-system, sans-serif" font-size="14" fill="#1e293b">Home</text>
  <text x="375" y="83" font-family="system-ui, -apple-system, sans-serif" font-size="14" fill="#64748b">></text>
  <circle cx="395" cy="80" r="6" fill="#f59e0b"/>
  <text x="390" y="84" font-family="system-ui, -apple-system, sans-serif" font-size="8" fill="#ffffff">S3</text>
  <text x="410" y="83" font-family="system-ui, -apple-system, sans-serif" font-size="14" fill="#1e293b">my-documents-bucket</text>
  
  <!-- Column View -->
  <!-- Column 1: Local Home -->
  <rect x="270" y="120" width="280" height="660" fill="#ffffff" stroke="#e2e8f0" stroke-width="1"/>
  <rect x="270" y="120" width="280" height="30" fill="#f8fafc"/>
  <circle cx="285" cy="135" r="6" fill="#3b82f6"/>
  <text x="300" y="140" font-family="system-ui, -apple-system, sans-serif" font-size="12" font-weight="600" fill="#374151">Local: Home</text>
  
  <g transform="translate(285, 160)">
    <!-- Local Folder: Documents -->
    <rect x="8" y="8" width="16" height="16" rx="2" fill="#3b82f6"/>
    <text x="32" y="20" font-family="system-ui, -apple-system, sans-serif" font-size="13" fill="#64748b">Documents</text>
    
    <!-- Local Folder: Downloads -->
    <rect x="8" y="48" width="16" height="16" rx="2" fill="#64748b"/>
    <text x="32" y="60" font-family="system-ui, -apple-system, sans-serif" font-size="13" fill="#64748b">Downloads</text>
    
    <!-- S3 Bucket (mounted) -->
    <rect x="0" y="80" width="250" height="32" rx="4" fill="#fef3c7" stroke="#f59e0b" stroke-width="1"/>
    <circle cx="16" cy="96" r="8" fill="#f59e0b"/>
    <text x="11" y="100" font-family="system-ui, -apple-system, sans-serif" font-size="8" fill="#ffffff">S3</text>
    <text x="32" y="100" font-family="system-ui, -apple-system, sans-serif" font-size="13" fill="#1e293b">my-documents-bucket</text>
    <text x="200" y="100" font-family="system-ui, -apple-system, sans-serif" font-size="11" fill="#f59e0b">S3</text>
    
    <!-- Local File -->
    <rect x="8" y="128" width="16" height="16" rx="2" fill="#10b981"/>
    <text x="32" y="140" font-family="system-ui, -apple-system, sans-serif" font-size="13" fill="#64748b">local-notes.txt</text>
    <text x="200" y="140" font-family="system-ui, -apple-system, sans-serif" font-size="11" fill="#9ca3af">5 KB</text>
  </g>
  
  <!-- Column 2: S3 Bucket Contents -->
  <rect x="570" y="120" width="280" height="660" fill="#ffffff" stroke="#e2e8f0" stroke-width="1"/>
  <rect x="570" y="120" width="280" height="30" fill="#fef3c7"/>
  <circle cx="585" cy="135" r="6" fill="#f59e0b"/>
  <text x="580" y="139" font-family="system-ui, -apple-system, sans-serif" font-size="8" fill="#ffffff">S3</text>
  <text x="600" y="140" font-family="system-ui, -apple-system, sans-serif" font-size="12" font-weight="600" fill="#374151">my-documents-bucket</text>
  
  <g transform="translate(585, 160)">
    <!-- S3 Folder: projects -->
    <rect x="0" y="0" width="250" height="32" rx="4" fill="#eff6ff" stroke="#3b82f6" stroke-width="1"/>
    <circle cx="16" cy="16" r="8" fill="#f59e0b"/>
    <text x="11" y="20" font-family="system-ui, -apple-system, sans-serif" font-size="8" fill="#ffffff">S3</text>
    <text x="32" y="20" font-family="system-ui, -apple-system, sans-serif" font-size="13" fill="#1e293b">projects/</text>
    
    <!-- S3 File: resume.pdf -->
    <circle cx="16" cy="56" r="8" fill="#f59e0b"/>
    <text x="11" y="60" font-family="system-ui, -apple-system, sans-serif" font-size="8" fill="#ffffff">S3</text>
    <text x="32" y="60" font-family="system-ui, -apple-system, sans-serif" font-size="13" fill="#64748b">resume.pdf</text>
    <text x="180" y="60" font-family="system-ui, -apple-system, sans-serif" font-size="11" fill="#9ca3af">245 KB</text>
    <text x="220" y="60" font-family="system-ui, -apple-system, sans-serif" font-size="10" fill="#f59e0b">S3</text>
    
    <!-- S3 File: backup.zip -->
    <circle cx="16" cy="96" r="8" fill="#f59e0b"/>
    <text x="11" y="100" font-family="system-ui, -apple-system, sans-serif" font-size="8" fill="#ffffff">S3</text>
    <text x="32" y="100" font-family="system-ui, -apple-system, sans-serif" font-size="13" fill="#64748b">backup.zip</text>
    <text x="180" y="100" font-family="system-ui, -apple-system, sans-serif" font-size="11" fill="#9ca3af">12.5 MB</text>
    <text x="220" y="100" font-family="system-ui, -apple-system, sans-serif" font-size="10" fill="#f59e0b">S3</text>
    
    <!-- Sync Status -->
    <rect x="0" y="120" width="250" height="20" fill="#f0fdf4" rx="4"/>
    <circle cx="10" cy="130" r="3" fill="#10b981"/>
    <text x="20" y="133" font-family="system-ui, -apple-system, sans-serif" font-size="11" fill="#10b981">Synced with local cache</text>
  </g>
  
  <!-- Column 3: S3 Projects Folder -->
  <rect x="870" y="120" width="280" height="660" fill="#ffffff" stroke="#e2e8f0" stroke-width="1"/>
  <rect x="870" y="120" width="280" height="30" fill="#fef3c7"/>
  <circle cx="885" cy="135" r="6" fill="#f59e0b"/>
  <text x="880" y="139" font-family="system-ui, -apple-system, sans-serif" font-size="8" fill="#ffffff">S3</text>
  <text x="900" y="140" font-family="system-ui, -apple-system, sans-serif" font-size="12" font-weight="600" fill="#374151">projects/</text>
  
  <g transform="translate(885, 160)">
    <!-- S3 Folder: s3-finder -->
    <rect x="0" y="0" width="250" height="32" rx="4" fill="#eff6ff" stroke="#3b82f6" stroke-width="1"/>
    <circle cx="16" cy="16" r="8" fill="#f59e0b"/>
    <text x="11" y="20" font-family="system-ui, -apple-system, sans-serif" font-size="8" fill="#ffffff">S3</text>
    <text x="32" y="20" font-family="system-ui, -apple-system, sans-serif" font-size="13" fill="#1e293b">s3-finder/</text>
    
    <!-- S3 File: README.md -->
    <circle cx="16" cy="56" r="8" fill="#f59e0b"/>
    <text x="11" y="60" font-family="system-ui, -apple-system, sans-serif" font-size="8" fill="#ffffff">S3</text>
    <text x="32" y="60" font-family="system-ui, -apple-system, sans-serif" font-size="13" fill="#64748b">README.md</text>
    <text x="180" y="60" font-family="system-ui, -apple-system, sans-serif" font-size="11" fill="#9ca3af">8 KB</text>
    <text x="220" y="60" font-family="system-ui, -apple-system, sans-serif" font-size="10" fill="#f59e0b">S3</text>
    
    <!-- S3 File: config.json -->
    <circle cx="16" cy="96" r="8" fill="#f59e0b"/>
    <text x="11" y="100" font-family="system-ui, -apple-system, sans-serif" font-size="8" fill="#ffffff">S3</text>
    <text x="32" y="100" font-family="system-ui, -apple-system, sans-serif" font-size="13" fill="#64748b">config.json</text>
    <text x="180" y="100" font-family="system-ui, -apple-system, sans-serif" font-size="11" fill="#9ca3af">2 KB</text>
    <text x="220" y="100" font-family="system-ui, -apple-system, sans-serif" font-size="10" fill="#f59e0b">S3</text>
    
    <!-- Transfer indicator -->
    <rect x="0" y="120" width="250" height="20" fill="#eff6ff" rx="4"/>
    <circle cx="10" cy="130" r="3" fill="#3b82f6"/>
    <text x="20" y="133" font-family="system-ui, -apple-system, sans-serif" font-size="11" fill="#3b82f6">Downloading...</text>
    <rect x="120" y="125" width="80" height="10" rx="5" fill="#dbeafe"/>
    <rect x="120" y="125" width="56" height="10" rx="5" fill="#3b82f6"/>
  </g>
  
  <!-- Drag & Drop Indicator -->
  <rect x="400" y="300" width="200" height="100" rx="8" fill="#eff6ff" stroke="#3b82f6" stroke-width="2" stroke-dasharray="8,4" opacity="0.8"/>
  <text x="450" y="340" font-family="system-ui, -apple-system, sans-serif" font-size="14" font-weight="600" fill="#3b82f6">Drop files here</text>
  <text x="430" y="360" font-family="system-ui, -apple-system, sans-serif" font-size="12" fill="#64748b">to upload to S3</text>
  <circle cx="500" cy="380" r="12" fill="#3b82f6"/>
  <path d="M495 375 L505 385 M500 370 L500 390 M490 380 L510 380" stroke="#ffffff" stroke-width="2" stroke-linecap="round"/>
  
  <!-- Status Bar -->
  <rect x="0" y="780" width="1200" height="20" fill="#f1f5f9" stroke="#e2e8f0" stroke-width="1"/>
  <text x="20" y="793" font-family="system-ui, -apple-system, sans-serif" font-size="11" fill="#64748b">2 local folders, 1 S3 bucket, 6 files</text>
  <text x="400" y="793" font-family="system-ui, -apple-system, sans-serif" font-size="11" fill="#10b981">✓ Connected to AWS S3 (us-east-1)</text>
  <text x="1000" y="793" font-family="system-ui, -apple-system, sans-serif" font-size="11" fill="#3b82f6">Uploading 1 file</text>
  
  <!-- Transfer Queue Panel -->
  <rect x="950" y="600" width="240" height="160" rx="8" fill="#ffffff" stroke="#e2e8f0" stroke-width="1" filter="drop-shadow(0 4px 6px rgba(0, 0, 0, 0.1))"/>
  <rect x="950" y="600" width="240" height="30" fill="#f8fafc" rx="8"/>
  <text x="965" y="620" font-family="system-ui, -apple-system, sans-serif" font-size="12" font-weight="600" fill="#374151">Transfer Queue</text>
  <circle cx="1170" cy="615" r="8" fill="#f3f4f6"/>
  <text x="1167" y="619" font-family="system-ui, -apple-system, sans-serif" font-size="10" fill="#6b7280">×</text>
  
  <!-- Transfer Items -->
  <g transform="translate(965, 640)">
    <!-- Upload item -->
    <rect x="0" y="0" width="210" height="30" fill="#eff6ff" rx="4"/>
    <text x="8" y="15" font-family="system-ui, -apple-system, sans-serif" font-size="11" fill="#3b82f6">↑</text>
    <text x="20" y="15" font-family="system-ui, -apple-system, sans-serif" font-size="11" fill="#1e293b">document.pdf</text>
    <rect x="120" y="8" width="80" height="6" rx="3" fill="#dbeafe"/>
    <rect x="120" y="8" width="56" height="6" rx="3" fill="#3b82f6"/>
    <text x="120" y="25" font-family="system-ui, -apple-system, sans-serif" font-size="9" fill="#64748b">70% - 2.1 MB/s</text>
    
    <!-- Download item -->
    <rect x="0" y="40" width="210" height="30" fill="#f0fdf4" rx="4"/>
    <text x="8" y="55" font-family="system-ui, -apple-system, sans-serif" font-size="11" fill="#10b981">↓</text>
    <text x="20" y="55" font-family="system-ui, -apple-system, sans-serif" font-size="11" fill="#1e293b">config.json</text>
    <rect x="120" y="48" width="80" height="6" rx="3" fill="#dcfce7"/>
    <rect x="120" y="48" width="72" height="6" rx="3" fill="#10b981"/>
    <text x="120" y="65" font-family="system-ui, -apple-system, sans-serif" font-size="9" fill="#64748b">90% - 1.5 MB/s</text>
    
    <!-- Completed item -->
    <rect x="0" y="80" width="210" height="30" fill="#f9fafb" rx="4"/>
    <text x="8" y="95" font-family="system-ui, -apple-system, sans-serif" font-size="11" fill="#10b981">✓</text>
    <text x="20" y="95" font-family="system-ui, -apple-system, sans-serif" font-size="11" fill="#6b7280">backup.zip</text>
    <text x="120" y="95" font-family="system-ui, -apple-system, sans-serif" font-size="9" fill="#10b981">Completed</text>
  </g>
</svg>